<?xml version="1.0" encoding="iso-8859-1"?>
<svg version="1.1" id="Layer_1" xmlns="http://www.w3.org/2000/svg"
	xmlns:xlink="http://www.w3.org/1999/xlink" x="100px" y="100px"
	viewBox="15 205 480 90"  xml:space="preserve">
<path d="M181.412,209.108c-3.907,0.251-10.305,1.142-14.966,2.056c-2.925,0.571-9.071,2.056-9.985,2.399l-0.526,0.206v13.87
	l3.267-0.777c15.538-3.656,31.418-4.25,38.661-1.462c2.331,0.891,3.564,1.691,5.095,3.245c2.171,2.216,3.245,5.118,3.245,8.82v1.645
	h-6.558c-13.961,0-24.837,1.577-32.675,4.753c-10.374,4.181-15.652,10.282-16.543,19.125c-0.845,8.591,2.034,15.629,8.34,20.313
	c3.153,2.331,9.345,4.981,12.933,5.552c0.434,0.069,1.668,0.32,2.719,0.571c3.473,0.8,12.499,1.577,18.417,1.577
	c2.331,0,7.266-0.343,11.607-0.823c4.296-0.457,13.138-2.376,17.069-3.702l1.942-0.663l0.069-24.312
	c0.069-26.665,0-28.699-1.12-33.04c-3.382-13.184-13.664-18.942-34.503-19.331C185.091,209.062,182.166,209.062,181.412,209.108
	L181.412,209.108z M205.13,252.087l1.531,0.137v11.608c0,10.853-0.023,11.608-0.388,11.722c-1.691,0.48-6.763,1.325-9.894,1.645
	c-4.433,0.434-11.036,0.343-14.921-0.228c-2.902-0.434-7.083-1.782-8.98-2.879c-1.737-1.028-3.724-3.016-4.41-4.456
	c-0.411-0.8-0.594-1.645-0.663-2.925c-0.206-3.496,0.823-6.032,3.405-8.454c3.656-3.473,9.734-5.324,20.427-6.169
	C193.02,251.928,203.599,251.928,205.13,252.087L205.13,252.087z M273.496,209.131c-2.308,0.16-7.974,1.028-9.551,1.462
	c-0.914,0.251-2.056,0.571-2.536,0.685c-0.48,0.114-1.759,0.594-2.833,1.028c-8.5,3.519-14.167,8.774-17.868,16.612
	c-1.668,3.519-2.605,6.603-3.473,11.356c-0.434,2.491-0.503,3.633-0.503,8.911c0,6.535,0.32,9.574,1.577,14.327
	c2.81,10.716,8.911,18.531,18.051,23.078c11.333,5.689,29.59,5.827,41.723,0.343c11.767-5.324,19.148-17,20.313-32.103
	c0.8-10.556-0.526-19.079-4.09-26.323c-5.05-10.214-14.098-16.543-26.642-18.622C282.818,209.085,278.043,208.811,273.496,209.131z
	 M282.727,222.817c8.5,1.759,13.664,6.786,16.223,15.789c0.8,2.833,1.051,4.57,1.28,8.637c0.16,2.696-0.137,7.814-0.571,10.396
	c-0.663,3.724-2.582,8.751-4.341,11.31c-3.862,5.621-10.008,8.637-17.594,8.637c-7.632,0.023-13.253-2.559-17.274-7.906
	c-4.319-5.758-6.444-16.223-5.233-25.683c1.691-13.024,8.157-20.199,19.422-21.547C276.74,222.2,280.625,222.36,282.727,222.817
	L282.727,222.817z M359.866,209.108c-0.366,0.046-2.079,0.251-3.77,0.457c-7.586,0.914-16.68,3.519-23.626,6.741l-0.663,0.32
	l0.137,26.962c0.091,14.829,0.16,31.212,0.16,36.376v9.437h17.366l0.046-31.464l0.069-31.441l1.828-0.64
	c4.022-1.394,8.18-2.079,12.796-2.125c2.97-0.023,3.656,0.046,5.141,0.503c4.456,1.394,7.335,4.067,9.071,8.386l0.64,1.599
	l0.069,27.602l0.046,27.579h17.366V228.85l1.234-0.8c1.782-1.142,5.095-2.536,7.655-3.245c1.919-0.526,2.628-0.617,5.849-0.617
	c2.81-0.023,3.999,0.069,5.141,0.388c4.821,1.302,7.952,4.204,9.505,8.843c0.411,1.188,0.434,2.673,0.503,28.607l0.069,27.374
	h17.343l-0.046-30.801l-0.069-30.778l-0.64-2.056c-1.645-5.278-4.341-8.934-8.751-11.882c-3.108-2.102-6.672-3.45-11.173-4.273
	c-4.159-0.777-10.785-0.708-15.743,0.137c-6.855,1.142-12.773,3.267-17.388,6.261c-1.44,0.914-1.645,0.983-2.079,0.708
	c-0.251-0.183-1.44-0.96-2.605-1.759c-5.644-3.816-12.27-5.667-20.907-5.872C362.311,209.039,360.255,209.039,359.866,209.108
	L359.866,209.108z M26.402,215.071c1.622,2.125,3.085,3.999,3.245,4.181c0.16,0.183,1.508,1.942,3.016,3.884
	c1.485,1.942,3.108,4.044,3.61,4.684c0.48,0.617,1.599,2.056,2.468,3.199c0.868,1.12,2.285,2.97,3.176,4.113
	c0.868,1.12,2.353,3.039,3.245,4.227c0.914,1.188,2.902,3.77,4.433,5.712c1.531,1.965,2.902,3.77,3.062,4.021
	c0.297,0.48-0.823,2.011-9.574,13.116c-0.845,1.074-2.034,2.605-2.651,3.427c-0.617,0.823-1.188,1.531-1.257,1.599
	c-0.091,0.069-0.8,0.983-1.622,2.056c-0.8,1.074-1.874,2.468-2.376,3.085c-0.503,0.64-1.188,1.508-1.531,1.942
	c-0.343,0.434-1.828,2.353-3.313,4.273c-1.485,1.897-3.862,4.935-5.255,6.763c-1.417,1.805-2.628,3.473-2.719,3.679
	c-0.137,0.343,0.685,0.366,9.665,0.366h9.802l2.308-3.016c1.28-1.668,2.856-3.77,3.542-4.638c0.685-0.891,2.605-3.382,4.273-5.552
	c1.668-2.194,3.405-4.456,3.862-5.05s2.285-2.97,4.021-5.255c3.039-3.953,3.199-4.136,3.587-3.747
	c0.206,0.229,2.468,3.176,5.027,6.581c2.559,3.382,5.347,7.083,6.215,8.226c0.868,1.12,3.336,4.387,5.484,7.243l3.93,5.21h10.374
	c8.249,0,10.305-0.069,10.145-0.297c-0.526-0.64-5.895-7.609-8.751-11.333c-1.691-2.216-3.405-4.433-3.816-4.935
	c-0.388-0.503-3.153-4.044-6.101-7.883c-2.97-3.839-5.53-7.129-5.69-7.312c-0.137-0.206-0.571-0.754-0.937-1.257
	c-0.388-0.503-0.754-0.96-0.823-1.028s-1.142-1.44-2.376-3.039c-1.508-1.988-2.148-3.016-2.011-3.199
	c0.114-0.16,1.028-1.302,2.011-2.582c0.983-1.257,2.056-2.628,2.376-3.039c0.526-0.708,3.679-4.753,7.86-10.077
	c1.028-1.325,3.519-4.501,5.53-7.083c1.988-2.582,3.747-4.844,3.907-5.027c0.16-0.183,1.485-1.897,2.948-3.77
	c1.485-1.896,3.176-4.067,3.793-4.867l1.142-1.417H83.617l-2.536,3.359c-7.289,9.688-17.228,22.689-17.343,22.689
	c-0.023,0-4.456-5.872-9.848-13.024l-9.78-13.024H23.432L26.402,215.071z M118.005,250.328v39.072h17.366l0.046-38.456
	c0.046-21.136,0.046-38.707,0-39.072l-0.069-0.617h-17.343L118.005,250.328z M460.29,250.328v39.072h17.366v-78.145H460.29V250.328z
	 M331.236,232.163c0,0.366,0.046,0.503,0.114,0.274c0.046-0.206,0.046-0.526,0-0.685
	C331.282,231.614,331.236,231.774,331.236,232.163z"/>
</svg>